# xmcd CD database file
#
# Track frame offsets:
#	150
#	38972
#	66547
#	91123
#	126423
#	152587
#	172828
#	201743
#	234002
#
# Disc length: 3607 seconds
#
# Revision: 0
# Processed by: cddbd v1.5.1PL0 Copyright (c) Steve Scherf et al.
# Submitted via: CDex 1.51
#
DISCID=750e1509
DTITLE=David Hazeltine Trio - Waltz For Debby
DYEAR=1999
DGENRE=Jazz
TTITLE0=Waltz For Dabby
TTITLE1=Peri's Scope
TTITLE2=Time Remembered
TTITLE3=Show Type Tune
TTITLE4=Very Early
TTITLE5=Bill At Peace
TTITLE6=Funkallero
TTITLE7=The Two Lonely Peaple
TTITLE8=Turn Out The Stars
EXTD=YEAR: 1999
EXTT0=
EXTT1=
EXTT2=
EXTT3=
EXTT4=
EXTT5=
EXTT6=
EXTT7=
EXTT8=
PLAYORDER=
